<svg data-v-423bf9ae="" xmlns="http://www.w3.org/2000/svg" viewBox="0 0 917.2792498065338 60" class="font"><!----><!----><!----><g data-v-423bf9ae="" id="40f41d38-baa4-4100-9484-ec6eeef8289d" fill="black" transform="matrix(4.773269805623416,0,0,4.773269805623416,-2.3866342567621928,-16.706444319681957)"><path d="M5.21 9.18Q6.31 9.37 6.86 9.93Q7.41 10.50 7.41 11.35L7.41 11.35Q7.41 12.45 6.56 13.08Q5.71 13.72 4.12 13.72L4.12 13.72L0.52 13.72L0.52 13.15L1.72 12.84L1.72 6.02L0.50 5.71L0.50 5.14L4.17 5.14Q5.73 5.14 6.44 5.69Q7.15 6.24 7.15 7.21L7.15 7.21Q7.15 8.01 6.63 8.52Q6.10 9.03 5.21 9.18L5.21 9.18ZM3.85 8.93Q4.58 8.93 5.04 8.55Q5.50 8.18 5.50 7.29L5.50 7.29Q5.50 6.59 5.12 6.25Q4.75 5.91 4.10 5.91L4.10 5.91Q3.84 5.91 3.62 5.96Q3.40 6.01 3.36 6.01L3.36 6.01L3.36 8.93L3.85 8.93ZM3.36 12.85Q3.65 12.95 4.10 12.95L4.10 12.95Q4.82 12.95 5.26 12.54Q5.70 12.12 5.70 11.27L5.70 11.27Q5.70 10.46 5.19 10.04Q4.68 9.63 3.81 9.63L3.81 9.63L3.36 9.63L3.36 12.85ZM11.83 13.86Q10.09 13.86 9.32 12.91Q8.55 11.96 8.55 10.30L8.55 10.30Q8.55 8.44 9.40 7.57Q10.25 6.71 11.69 6.71L11.69 6.71Q13.12 6.71 13.78 7.35Q14.43 7.99 14.43 9.37L14.43 9.37Q14.43 9.84 14.39 10.22L14.39 10.22L10.32 10.22L10.32 10.60Q10.32 11.82 10.82 12.37Q11.31 12.92 12.26 12.92L12.26 12.92Q13.10 12.92 14.25 12.60L14.25 12.60L14.36 13.15Q13.30 13.86 11.83 13.86L11.83 13.86ZM10.35 9.55L12.75 9.41L12.75 9.10Q12.75 8.34 12.54 7.96Q12.32 7.57 11.76 7.57L11.76 7.57Q10.99 7.57 10.69 8.04Q10.39 8.51 10.35 9.55L10.35 9.55ZM19.10 7.78Q18.48 7.78 17.98 8.02L17.98 8.02L17.98 12.82L19.59 13.12L19.59 13.72L15.19 13.72L15.19 13.13L16.34 12.82L16.34 7.95L15.19 7.78L15.19 7.24L17.37 6.71L17.96 6.71L17.96 7.35Q18.44 7.04 19.01 6.85Q19.59 6.66 20.08 6.66L20.08 6.66Q20.37 6.66 20.47 6.68L20.47 6.68L20.22 9.02L19.39 9.02L19.10 7.78ZM24.82 13.72L20.89 13.72L20.89 13.10L22.04 12.82L22.04 4.75L20.89 4.59L20.89 4.05L23.14 3.50L23.67 3.50L23.67 12.82L24.82 13.10L24.82 13.72ZM27.38 5.73Q26.95 5.73 26.63 5.43Q26.31 5.14 26.31 4.72L26.31 4.72Q26.31 4.28 26.63 3.97Q26.95 3.65 27.38 3.65L27.38 3.65Q27.80 3.65 28.11 3.97Q28.42 4.28 28.42 4.72L28.42 4.72Q28.42 5.14 28.11 5.43Q27.80 5.73 27.38 5.73L27.38 5.73ZM29.34 13.72L25.42 13.72L25.42 13.10L26.57 12.82L26.57 7.94L25.42 7.78L25.42 7.24L27.68 6.71L28.21 6.71L28.21 12.82L29.34 13.10L29.34 13.72ZM32.73 7.27Q33.12 7.08 33.87 6.90Q34.61 6.71 35.21 6.71L35.21 6.71Q35.99 6.71 36.49 7.06Q36.99 7.41 36.99 8.18L36.99 8.18L36.99 12.82L38.15 13.17L38.15 13.72L34.40 13.72L34.40 13.17L35.35 12.82L35.35 8.58Q35.35 8.22 35.26 8.04Q35.17 7.85 34.93 7.79Q34.69 7.73 34.23 7.73L34.23 7.73Q33.45 7.73 32.73 7.92L32.73 7.92L32.73 12.82L33.68 13.17L33.68 13.72L29.95 13.72L29.95 13.17L31.09 12.82L31.09 7.92L29.95 7.78L29.95 7.22L32.20 6.71L32.73 6.71L32.73 7.27ZM45.14 5.14Q46.47 5.14 47.35 5.78Q48.23 6.41 48.23 7.59L48.23 7.59Q48.23 8.48 47.80 9.09Q47.36 9.70 46.66 10.00Q45.95 10.29 45.15 10.29L45.15 10.29Q44.98 10.29 44.70 10.27Q44.41 10.25 44.25 10.21L44.25 10.21L44.25 12.84L45.74 13.13L45.74 13.72L41.41 13.72L41.41 13.15L42.62 12.84L42.62 6.03L41.40 5.73L41.40 5.14L45.14 5.14ZM44.25 9.58Q44.48 9.63 44.83 9.63L44.83 9.63Q45.61 9.63 46.07 9.11Q46.54 8.60 46.54 7.69L46.54 7.69Q46.54 6.86 46.14 6.39Q45.74 5.92 45.08 5.92L45.08 5.92Q44.63 5.92 44.25 6.01L44.25 6.01L44.25 9.58ZM56.69 13.55Q55.79 13.79 55.17 13.79L55.17 13.79Q54.74 13.79 54.38 13.58Q54.01 13.37 53.94 13.02L53.94 13.02Q53.44 13.37 52.78 13.62Q52.12 13.86 51.52 13.86L51.52 13.86Q50.61 13.86 50.20 13.40Q49.80 12.94 49.80 12.24L49.80 12.24L49.80 7.94L48.65 7.78L48.65 7.24L50.92 6.71L51.44 6.71L51.44 11.86Q51.44 12.35 51.65 12.58Q51.86 12.81 52.40 12.81L52.40 12.81Q52.71 12.81 53.14 12.68Q53.56 12.54 53.89 12.36L53.89 12.36L53.89 7.94L52.74 7.78L52.74 7.24L54.99 6.71L55.52 6.71L55.52 12.68L56.69 13.02L56.69 13.55ZM59.71 7.07Q59.99 6.92 60.40 6.81Q60.82 6.71 61.19 6.71L61.19 6.71Q62.69 6.71 63.50 7.57Q64.32 8.44 64.32 10.22L64.32 10.22Q64.32 11.80 63.53 12.83Q62.75 13.86 60.82 13.86L60.82 13.86Q60.23 13.86 59.39 13.75Q58.56 13.64 58.06 13.48L58.06 13.48L58.06 4.75L56.92 4.59L56.92 4.05L59.18 3.50L59.71 3.50L59.71 7.07ZM59.71 12.82Q59.86 12.91 60.16 12.96Q60.45 13.02 60.82 13.02L60.82 13.02Q61.80 13.02 62.17 12.36Q62.54 11.69 62.54 10.25L62.54 10.25Q62.54 8.86 62.17 8.20Q61.81 7.55 60.84 7.55L60.84 7.55Q60.51 7.55 60.25 7.62Q59.99 7.69 59.71 7.84L59.71 7.84L59.71 12.82ZM68.89 13.72L64.96 13.72L64.96 13.10L66.11 12.82L66.11 4.75L64.96 4.59L64.96 4.05L67.21 3.50L67.75 3.50L67.75 12.82L68.89 13.10L68.89 13.72ZM71.46 5.73Q71.02 5.73 70.70 5.43Q70.38 5.14 70.38 4.72L70.38 4.72Q70.38 4.28 70.70 3.97Q71.02 3.65 71.46 3.65L71.46 3.65Q71.88 3.65 72.18 3.97Q72.49 4.28 72.49 4.72L72.49 4.72Q72.49 5.14 72.18 5.43Q71.88 5.73 71.46 5.73L71.46 5.73ZM73.42 13.72L69.50 13.72L69.50 13.10L70.64 12.82L70.64 7.94L69.50 7.78L69.50 7.24L71.75 6.71L72.28 6.71L72.28 12.82L73.42 13.10L73.42 13.72ZM77.22 13.86Q75.61 13.86 74.84 12.87Q74.07 11.89 74.07 10.30L74.07 10.30Q74.07 8.68 74.84 7.69Q75.60 6.71 77.22 6.71L77.22 6.71Q77.90 6.71 78.46 6.81Q79.02 6.92 79.60 7.14L79.60 7.14L79.34 9.02L78.64 9.02L78.33 7.74Q77.87 7.56 77.36 7.56L77.36 7.56Q76.48 7.56 76.16 8.26Q75.84 8.96 75.84 10.28L75.84 10.28Q75.84 11.26 76.00 11.83Q76.16 12.40 76.52 12.66Q76.87 12.91 77.48 12.91L77.48 12.91Q78.50 12.91 79.53 12.59L79.53 12.59L79.63 13.15Q79.13 13.48 78.51 13.67Q77.90 13.86 77.22 13.86L77.22 13.86ZM82.52 7.27L82.42 5.14L89.61 5.14L89.53 7.27L88.83 7.27L88.55 6.01L86.84 6.01L86.84 12.84L88.13 13.15L88.13 13.72L83.92 13.72L83.92 13.15L85.20 12.84L85.20 6.01L83.47 6.01L83.20 7.27L82.52 7.27ZM93.81 7.78Q93.20 7.78 92.69 8.02L92.69 8.02L92.69 12.82L94.30 13.12L94.30 13.72L89.91 13.72L89.91 13.13L91.06 12.82L91.06 7.95L89.91 7.78L89.91 7.24L92.09 6.71L92.68 6.71L92.68 7.35Q93.16 7.04 93.73 6.85Q94.30 6.66 94.79 6.66L94.79 6.66Q95.09 6.66 95.19 6.68L95.19 6.68L94.93 9.02L94.11 9.02L93.81 7.78ZM98.46 7.66Q97.87 7.66 97.33 7.84L97.33 7.84L97.01 9.02L96.32 9.02L96.08 7.22Q97.44 6.71 98.90 6.71L98.90 6.71Q99.99 6.71 100.55 7.07Q101.11 7.43 101.11 8.37L101.11 8.37L101.11 12.68L102.26 13.02L102.26 13.55Q101.36 13.79 100.74 13.79L100.74 13.79Q100.31 13.79 99.96 13.59Q99.61 13.40 99.51 13.03L99.51 13.03Q98.94 13.44 98.42 13.65Q97.90 13.86 97.31 13.86L97.31 13.86Q96.57 13.86 96.14 13.38Q95.72 12.89 95.72 12.14L95.72 12.14Q95.72 11.47 96.12 10.90Q96.52 10.33 97.51 10.14L97.51 10.14L99.47 9.76L99.47 8.71Q99.47 8.15 99.25 7.90Q99.02 7.66 98.46 7.66L98.46 7.66ZM98.42 10.72Q97.85 10.85 97.60 11.16Q97.36 11.47 97.36 11.94L97.36 11.94Q97.36 12.82 98.18 12.82L98.18 12.82Q98.48 12.82 98.84 12.69Q99.20 12.56 99.47 12.39L99.47 12.39L99.47 10.50L98.42 10.72ZM105.57 7.27Q105.97 7.08 106.71 6.90Q107.45 6.71 108.05 6.71L108.05 6.71Q108.84 6.71 109.33 7.06Q109.83 7.41 109.83 8.18L109.83 8.18L109.83 12.82L110.99 13.17L110.99 13.72L107.24 13.72L107.24 13.17L108.19 12.82L108.19 8.58Q108.19 8.22 108.10 8.04Q108.01 7.85 107.77 7.79Q107.53 7.73 107.07 7.73L107.07 7.73Q106.29 7.73 105.57 7.92L105.57 7.92L105.57 12.82L106.53 13.17L106.53 13.72L102.79 13.72L102.79 13.17L103.94 12.82L103.94 7.92L102.79 7.78L102.79 7.22L105.04 6.71L105.57 6.71L105.57 7.27ZM114.44 7.56Q113.86 7.56 113.53 7.78Q113.20 8.01 113.20 8.40L113.20 8.40Q113.20 8.75 113.38 8.96Q113.55 9.17 113.97 9.31L113.97 9.31L115.37 9.77Q116.16 10.02 116.49 10.46Q116.83 10.91 116.83 11.69L116.83 11.69Q116.83 12.70 116.09 13.28Q115.36 13.86 114.03 13.86L114.03 13.86Q113.51 13.86 112.88 13.77Q112.25 13.68 111.79 13.51L111.79 13.51L111.96 11.68L112.64 11.68L112.94 12.84Q113.44 13.01 114.02 13.01L114.02 13.01Q114.70 13.01 115.07 12.75Q115.43 12.50 115.43 12.01L115.43 12.01Q115.43 11.69 115.23 11.52Q115.04 11.34 114.52 11.16L114.52 11.16L113.22 10.71Q112.52 10.46 112.17 10.01Q111.83 9.56 111.83 8.83L111.83 8.83Q111.83 7.83 112.49 7.27Q113.15 6.71 114.46 6.71L114.46 6.71Q114.97 6.71 115.52 6.81Q116.07 6.92 116.55 7.13L116.55 7.13L116.35 8.79L115.70 8.79L115.40 7.76Q114.97 7.56 114.44 7.56L114.44 7.56ZM117.60 16.07L117.60 15.47L118.75 15.16L118.75 7.90L117.49 7.78L117.49 7.22Q118.37 7.00 119.45 6.85Q120.53 6.71 121.45 6.71L121.45 6.71Q123.40 6.71 124.19 7.62Q124.99 8.53 124.99 10.30L124.99 10.30Q124.99 11.87 124.18 12.80Q123.37 13.72 121.86 13.72L121.86 13.72Q121.28 13.72 120.68 13.52L120.68 13.52L120.86 12.87Q121.11 12.92 121.39 12.92L121.39 12.92Q122.16 12.92 122.56 12.59Q122.96 12.25 123.09 11.68Q123.21 11.12 123.21 10.25L123.21 10.25Q123.21 9.04 122.87 8.30Q122.53 7.55 121.48 7.55L121.48 7.55Q120.92 7.55 120.39 7.71L120.39 7.71L120.39 15.12L121.86 15.44L121.86 16.07L117.60 16.07ZM129.22 6.71Q130.98 6.71 131.81 7.69Q132.64 8.68 132.64 10.30L132.64 10.30Q132.64 11.89 131.80 12.87Q130.96 13.86 129.22 13.86L129.22 13.86Q127.53 13.86 126.69 12.87Q125.86 11.87 125.86 10.30L125.86 10.30Q125.86 8.68 126.68 7.69Q127.50 6.71 129.22 6.71L129.22 6.71ZM130.86 10.28Q130.86 8.97 130.49 8.26Q130.13 7.55 129.19 7.55L129.19 7.55Q128.31 7.55 127.97 8.26Q127.62 8.97 127.62 10.28L127.62 10.28Q127.62 11.56 127.99 12.29Q128.35 13.01 129.28 13.01L129.28 13.01Q130.19 13.01 130.52 12.29Q130.86 11.58 130.86 10.28L130.86 10.28ZM137.33 7.78Q136.71 7.78 136.21 8.02L136.21 8.02L136.21 12.82L137.82 13.12L137.82 13.72L133.42 13.72L133.42 13.13L134.57 12.82L134.57 7.95L133.42 7.78L133.42 7.24L135.60 6.71L136.19 6.71L136.19 7.35Q136.67 7.04 137.24 6.85Q137.82 6.66 138.31 6.66L138.31 6.66Q138.60 6.66 138.70 6.68L138.70 6.68L138.45 9.02L137.62 9.02L137.33 7.78ZM143.40 13.55Q142.98 13.68 142.35 13.76Q141.72 13.85 141.34 13.85L141.34 13.85Q140.66 13.85 140.40 13.54Q140.14 13.23 140.14 12.74L140.14 12.74L140.14 7.74L139.13 7.74L139.13 7.14L140.28 6.68L141.02 5.28L141.76 5.28L141.76 6.83L143.60 6.83L143.60 7.84L141.76 7.73L141.76 12.66L143.40 12.96L143.40 13.55ZM150.89 13.72L146.83 13.72L146.83 13.15L148.05 12.84L148.05 6.01L146.83 5.71L146.83 5.14L150.89 5.14L150.89 5.71L149.69 6.01L149.69 9.06L153.22 9.06L153.22 6.01L152.00 5.71L152.00 5.14L156.06 5.14L156.06 5.71L154.85 6.01L154.85 12.84L156.07 13.15L156.07 13.72L152.01 13.72L152.01 13.15L153.22 12.84L153.22 9.84L149.69 9.84L149.69 12.84L150.89 13.15L150.89 13.72ZM158.91 5.73Q158.48 5.73 158.16 5.43Q157.84 5.14 157.84 4.72L157.84 4.72Q157.84 4.28 158.16 3.97Q158.48 3.65 158.91 3.65L158.91 3.65Q159.33 3.65 159.64 3.97Q159.95 4.28 159.95 4.72L159.95 4.72Q159.95 5.14 159.64 5.43Q159.33 5.73 158.91 5.73L158.91 5.73ZM160.87 13.72L156.95 13.72L156.95 13.10L158.10 12.82L158.10 7.94L156.95 7.78L156.95 7.24L159.21 6.71L159.74 6.71L159.74 12.82L160.87 13.10L160.87 13.72ZM164.33 7.56Q163.76 7.56 163.43 7.78Q163.10 8.01 163.10 8.40L163.10 8.40Q163.10 8.75 163.27 8.96Q163.45 9.17 163.87 9.31L163.87 9.31L165.27 9.77Q166.05 10.02 166.39 10.46Q166.73 10.91 166.73 11.69L166.73 11.69Q166.73 12.70 165.99 13.28Q165.26 13.86 163.93 13.86L163.93 13.86Q163.41 13.86 162.78 13.77Q162.15 13.68 161.69 13.51L161.69 13.51L161.85 11.68L162.54 11.68L162.83 12.84Q163.34 13.01 163.91 13.01L163.91 13.01Q164.60 13.01 164.96 12.75Q165.33 12.50 165.33 12.01L165.33 12.01Q165.33 11.69 165.13 11.52Q164.93 11.34 164.42 11.16L164.42 11.16L163.11 10.71Q162.41 10.46 162.07 10.01Q161.73 9.56 161.73 8.83L161.73 8.83Q161.73 7.83 162.39 7.27Q163.04 6.71 164.36 6.71L164.36 6.71Q164.86 6.71 165.42 6.81Q165.97 6.92 166.45 7.13L166.45 7.13L166.25 8.79L165.59 8.79L165.30 7.76Q164.86 7.56 164.33 7.56L164.33 7.56ZM171.77 13.55Q171.35 13.68 170.72 13.76Q170.09 13.85 169.71 13.85L169.71 13.85Q169.02 13.85 168.76 13.54Q168.50 13.23 168.50 12.74L168.50 12.74L168.50 7.74L167.50 7.74L167.50 7.14L168.64 6.68L169.39 5.28L170.13 5.28L170.13 6.83L171.96 6.83L171.96 7.84L170.13 7.73L170.13 12.66L171.77 12.96L171.77 13.55ZM175.91 6.71Q177.67 6.71 178.50 7.69Q179.33 8.68 179.33 10.30L179.33 10.30Q179.33 11.89 178.49 12.87Q177.65 13.86 175.91 13.86L175.91 13.86Q174.22 13.86 173.38 12.87Q172.55 11.87 172.55 10.30L172.55 10.30Q172.55 8.68 173.37 7.69Q174.19 6.71 175.91 6.71L175.91 6.71ZM177.55 10.28Q177.55 8.97 177.18 8.26Q176.82 7.55 175.88 7.55L175.88 7.55Q175.00 7.55 174.66 8.26Q174.31 8.97 174.31 10.28L174.31 10.28Q174.31 11.56 174.68 12.29Q175.04 13.01 175.97 13.01L175.97 13.01Q176.88 13.01 177.21 12.29Q177.55 11.58 177.55 10.28L177.55 10.28ZM184.02 7.78Q183.40 7.78 182.90 8.02L182.90 8.02L182.90 12.82L184.51 13.12L184.51 13.72L180.11 13.72L180.11 13.13L181.26 12.82L181.26 7.95L180.11 7.78L180.11 7.24L182.29 6.71L182.88 6.71L182.88 7.35Q183.36 7.04 183.93 6.85Q184.51 6.66 185.00 6.66L185.00 6.66Q185.29 6.66 185.39 6.68L185.39 6.68L185.14 9.02L184.31 9.02L184.02 7.78ZM188.66 6.83L188.66 7.35L187.96 7.69L189.42 11.54L190.69 7.71L189.74 7.48L189.74 6.83L192.67 6.83L192.67 7.45L191.79 7.71L189.78 13.24Q189.28 14.67 188.69 15.37Q188.10 16.07 187.22 16.07L187.22 16.07Q186.59 16.07 185.77 15.69L185.77 15.69L185.86 15.12L186.66 15.12Q187.36 15.12 187.80 14.69Q188.23 14.25 188.59 13.38L188.59 13.38L186.21 7.69L185.47 7.35L185.47 6.83L188.66 6.83Z"></path></g><!----><!----></svg>